<mxfile host="Electron" agent="Mozilla/5.0 (Windows NT 10.0; Win64; x64) AppleWebKit/537.36 (KHTML, like Gecko) draw.io/24.7.8 Chrome/128.0.6613.36 Electron/32.0.1 Safari/537.36" version="24.7.8">
  <diagram id="Ht1M8jgEwFfnCIfOTk4-" name="Page-1">
    <mxGraphModel dx="2049" dy="1263" grid="1" gridSize="10" guides="1" tooltips="1" connect="1" arrows="1" fold="1" page="1" pageScale="1" pageWidth="1600" pageHeight="1200" math="0" shadow="0">
      <root>
        <object label="" var.vpc_cidr="10.0.0.0/16" id="0">
          <mxCell />
        </object>
        <mxCell id="1" parent="0" />
        <mxCell id="DTyQtxdmuiJ5-HdGRA2z-33" value="Region&amp;nbsp; &amp;nbsp;(var.region = &quot;us-west-2&quot;)" style="points=[[0,0],[0.25,0],[0.5,0],[0.75,0],[1,0],[1,0.25],[1,0.5],[1,0.75],[1,1],[0.75,1],[0.5,1],[0.25,1],[0,1],[0,0.75],[0,0.5],[0,0.25]];outlineConnect=0;gradientColor=none;html=1;whiteSpace=wrap;fontSize=12;fontStyle=0;container=1;pointerEvents=0;collapsible=0;recursiveResize=0;shape=mxgraph.aws4.group;grIcon=mxgraph.aws4.group_region;strokeColor=#00A4A6;fillColor=none;verticalAlign=top;align=left;spacingLeft=30;fontColor=#147EBA;dashed=1;" vertex="1" parent="1">
          <mxGeometry x="80" y="80" width="1310" height="720" as="geometry" />
        </mxCell>
        <mxCell id="DTyQtxdmuiJ5-HdGRA2z-34" value="VPC" style="points=[[0,0],[0.25,0],[0.5,0],[0.75,0],[1,0],[1,0.25],[1,0.5],[1,0.75],[1,1],[0.75,1],[0.5,1],[0.25,1],[0,1],[0,0.75],[0,0.5],[0,0.25]];outlineConnect=0;gradientColor=none;html=1;whiteSpace=wrap;fontSize=12;fontStyle=0;container=1;pointerEvents=0;collapsible=0;recursiveResize=0;shape=mxgraph.aws4.group;grIcon=mxgraph.aws4.group_vpc2;strokeColor=#8C4FFF;fillColor=none;verticalAlign=top;align=left;spacingLeft=30;fontColor=#AAB7B8;dashed=0;" vertex="1" parent="DTyQtxdmuiJ5-HdGRA2z-33">
          <mxGeometry x="230" y="44" width="950" height="656" as="geometry" />
        </mxCell>
        <mxCell id="DTyQtxdmuiJ5-HdGRA2z-61" value="(var.vpc_cidr: 10.0.0.0/16)" style="text;html=1;align=left;verticalAlign=middle;resizable=0;points=[];autosize=1;strokeColor=none;fillColor=none;" vertex="1" parent="DTyQtxdmuiJ5-HdGRA2z-34">
          <mxGeometry x="63" y="-2" width="160" height="30" as="geometry" />
        </mxCell>
        <mxCell id="DTyQtxdmuiJ5-HdGRA2z-63" value="Private subnets" style="points=[[0,0],[0.25,0],[0.5,0],[0.75,0],[1,0],[1,0.25],[1,0.5],[1,0.75],[1,1],[0.75,1],[0.5,1],[0.25,1],[0,1],[0,0.75],[0,0.5],[0,0.25]];outlineConnect=0;gradientColor=none;html=1;whiteSpace=wrap;fontSize=12;fontStyle=0;container=0;pointerEvents=0;collapsible=0;recursiveResize=0;shape=mxgraph.aws4.group;grIcon=mxgraph.aws4.group_security_group;grStroke=0;strokeColor=#00A4A6;fillColor=#E6F6F7;verticalAlign=top;align=left;spacingLeft=30;fontColor=#147EBA;dashed=0;" vertex="1" parent="DTyQtxdmuiJ5-HdGRA2z-34">
          <mxGeometry x="25" y="316" width="902" height="314" as="geometry" />
        </mxCell>
        <mxCell id="DTyQtxdmuiJ5-HdGRA2z-66" value="Public subnets" style="points=[[0,0],[0.25,0],[0.5,0],[0.75,0],[1,0],[1,0.25],[1,0.5],[1,0.75],[1,1],[0.75,1],[0.5,1],[0.25,1],[0,1],[0,0.75],[0,0.5],[0,0.25]];outlineConnect=0;gradientColor=none;html=1;whiteSpace=wrap;fontSize=12;fontStyle=0;container=1;pointerEvents=0;collapsible=0;recursiveResize=0;shape=mxgraph.aws4.group;grIcon=mxgraph.aws4.group_security_group;grStroke=0;strokeColor=#7AA116;fillColor=#F2F6E8;verticalAlign=top;align=left;spacingLeft=30;fontColor=#248814;dashed=0;" vertex="1" parent="DTyQtxdmuiJ5-HdGRA2z-34">
          <mxGeometry x="25" y="96" width="902" height="204" as="geometry" />
        </mxCell>
        <mxCell id="DTyQtxdmuiJ5-HdGRA2z-71" value="" style="group" vertex="1" connectable="0" parent="DTyQtxdmuiJ5-HdGRA2z-66">
          <mxGeometry x="439" y="-23" width="90" height="96" as="geometry" />
        </mxCell>
        <mxCell id="DTyQtxdmuiJ5-HdGRA2z-69" value="" style="outlineConnect=0;dashed=0;verticalLabelPosition=bottom;verticalAlign=top;align=center;html=1;shape=mxgraph.aws3.internet_gateway;fillColor=#F58536;gradientColor=none;" vertex="1" parent="DTyQtxdmuiJ5-HdGRA2z-71">
          <mxGeometry x="9.139999999999986" width="69" height="72" as="geometry" />
        </mxCell>
        <mxCell id="DTyQtxdmuiJ5-HdGRA2z-70" value="&lt;font color=&quot;#000000&quot;&gt;eks-dev-igw&lt;/font&gt;" style="text;html=1;align=center;verticalAlign=middle;whiteSpace=wrap;rounded=0;" vertex="1" parent="DTyQtxdmuiJ5-HdGRA2z-71">
          <mxGeometry y="66" width="90" height="30" as="geometry" />
        </mxCell>
        <mxCell id="DTyQtxdmuiJ5-HdGRA2z-123" style="edgeStyle=orthogonalEdgeStyle;rounded=0;orthogonalLoop=1;jettySize=auto;html=1;strokeColor=#000000;" edge="1" parent="DTyQtxdmuiJ5-HdGRA2z-66" source="DTyQtxdmuiJ5-HdGRA2z-78">
          <mxGeometry relative="1" as="geometry">
            <mxPoint x="515" y="10" as="targetPoint" />
            <Array as="points">
              <mxPoint x="549" y="128" />
              <mxPoint x="549" y="10" />
            </Array>
          </mxGeometry>
        </mxCell>
        <mxCell id="DTyQtxdmuiJ5-HdGRA2z-78" value="" style="sketch=0;outlineConnect=0;fontColor=#232F3E;gradientColor=none;fillColor=#8C4FFF;strokeColor=none;dashed=0;verticalLabelPosition=bottom;verticalAlign=top;align=center;html=1;fontSize=12;fontStyle=0;aspect=fixed;pointerEvents=1;shape=mxgraph.aws4.route_table;" vertex="1" parent="DTyQtxdmuiJ5-HdGRA2z-66">
          <mxGeometry x="447" y="90" width="78" height="76" as="geometry" />
        </mxCell>
        <mxCell id="DTyQtxdmuiJ5-HdGRA2z-62" value="&amp;nbsp;AZ2&amp;nbsp; &amp;nbsp;(var.azone1 = &quot;us-west-2b&quot;)" style="fillColor=none;strokeColor=#147EBA;dashed=1;verticalAlign=top;fontStyle=0;fontColor=#147EBA;whiteSpace=wrap;html=1;align=left;container=0;" vertex="1" parent="DTyQtxdmuiJ5-HdGRA2z-34">
          <mxGeometry x="587" y="110" width="300" height="500" as="geometry" />
        </mxCell>
        <mxCell id="DTyQtxdmuiJ5-HdGRA2z-5" value="&amp;nbsp;AZ1&amp;nbsp; &amp;nbsp;(var.azone1 = &quot;us-west-2a&quot;)" style="fillColor=none;strokeColor=#147EBA;dashed=1;verticalAlign=top;fontStyle=0;fontColor=#147EBA;whiteSpace=wrap;html=1;align=left;container=0;" vertex="1" parent="DTyQtxdmuiJ5-HdGRA2z-34">
          <mxGeometry x="160" y="110" width="270" height="500" as="geometry" />
        </mxCell>
        <mxCell id="DTyQtxdmuiJ5-HdGRA2z-125" style="edgeStyle=orthogonalEdgeStyle;rounded=0;orthogonalLoop=1;jettySize=auto;html=1;strokeColor=#000000;startArrow=classic;startFill=1;" edge="1" parent="DTyQtxdmuiJ5-HdGRA2z-34" source="DTyQtxdmuiJ5-HdGRA2z-81" target="DTyQtxdmuiJ5-HdGRA2z-78">
          <mxGeometry relative="1" as="geometry" />
        </mxCell>
        <mxCell id="DTyQtxdmuiJ5-HdGRA2z-81" value="" style="rounded=1;arcSize=10;dashed=0;fillColor=none;gradientColor=none;strokeWidth=2;strokeColor=#3399FF;container=0;" vertex="1" parent="DTyQtxdmuiJ5-HdGRA2z-34">
          <mxGeometry x="175.63545454545456" y="179.76467336683424" width="117.5909090909091" height="90.0502512562814" as="geometry" />
        </mxCell>
        <mxCell id="DTyQtxdmuiJ5-HdGRA2z-82" value="" style="dashed=0;html=1;shape=mxgraph.aws3.permissions;fillColor=#D9A741;gradientColor=none;dashed=0;strokeColor=#3399FF;container=0;" vertex="1" parent="DTyQtxdmuiJ5-HdGRA2z-34">
          <mxGeometry x="199.27181818181825" y="157.25211055276384" width="35.45454545454545" height="39.39698492462311" as="geometry" />
        </mxCell>
        <mxCell id="DTyQtxdmuiJ5-HdGRA2z-83" value="&lt;font style=&quot;font-size: 8px;&quot; color=&quot;#000000&quot;&gt;public_subnet_cidr_az1&lt;/font&gt;" style="text;html=1;align=left;verticalAlign=middle;whiteSpace=wrap;rounded=0;container=0;" vertex="1" parent="DTyQtxdmuiJ5-HdGRA2z-34">
          <mxGeometry x="191.75" y="196.64909547738694" width="100.45454545454545" height="21.386934673366834" as="geometry" />
        </mxCell>
        <mxCell id="DTyQtxdmuiJ5-HdGRA2z-84" value="&lt;font color=&quot;#000000&quot;&gt;10.0.1.0/24&lt;/font&gt;" style="text;html=1;align=center;verticalAlign=middle;whiteSpace=wrap;rounded=0;container=0;" vertex="1" parent="DTyQtxdmuiJ5-HdGRA2z-34">
          <mxGeometry x="191.74272727272725" y="202.90291457286435" width="70.9090909090909" height="33.768844221105525" as="geometry" />
        </mxCell>
        <mxCell id="DTyQtxdmuiJ5-HdGRA2z-85" style="edgeStyle=orthogonalEdgeStyle;rounded=0;orthogonalLoop=1;jettySize=auto;html=1;entryX=0;entryY=0.5;entryDx=0;entryDy=0;" edge="1" parent="DTyQtxdmuiJ5-HdGRA2z-34" source="DTyQtxdmuiJ5-HdGRA2z-75" target="DTyQtxdmuiJ5-HdGRA2z-70">
          <mxGeometry relative="1" as="geometry" />
        </mxCell>
        <mxCell id="DTyQtxdmuiJ5-HdGRA2z-86" style="edgeStyle=orthogonalEdgeStyle;rounded=0;orthogonalLoop=1;jettySize=auto;html=1;entryX=0;entryY=0.5;entryDx=0;entryDy=0;entryPerimeter=0;strokeColor=#000000;" edge="1" parent="DTyQtxdmuiJ5-HdGRA2z-34" source="DTyQtxdmuiJ5-HdGRA2z-75" target="DTyQtxdmuiJ5-HdGRA2z-69">
          <mxGeometry relative="1" as="geometry">
            <Array as="points">
              <mxPoint x="440" y="147" />
              <mxPoint x="440" y="109" />
            </Array>
          </mxGeometry>
        </mxCell>
        <mxCell id="DTyQtxdmuiJ5-HdGRA2z-88" value="" style="group" vertex="1" connectable="0" parent="DTyQtxdmuiJ5-HdGRA2z-34">
          <mxGeometry x="341" y="124.51" width="70" height="71.49" as="geometry" />
        </mxCell>
        <mxCell id="DTyQtxdmuiJ5-HdGRA2z-75" value="" style="sketch=0;outlineConnect=0;fontColor=#232F3E;gradientColor=none;fillColor=#8C4FFF;strokeColor=none;dashed=0;verticalLabelPosition=bottom;verticalAlign=top;align=center;html=1;fontSize=12;fontStyle=0;aspect=fixed;pointerEvents=1;shape=mxgraph.aws4.nat_gateway;" vertex="1" parent="DTyQtxdmuiJ5-HdGRA2z-88">
          <mxGeometry x="17" width="44" height="44" as="geometry" />
        </mxCell>
        <mxCell id="DTyQtxdmuiJ5-HdGRA2z-77" value="&lt;font style=&quot;font-size: 10px;&quot; color=&quot;#000000&quot;&gt;NAT Gateway (EIP)&lt;/font&gt;" style="text;html=1;align=center;verticalAlign=middle;whiteSpace=wrap;rounded=0;" vertex="1" parent="DTyQtxdmuiJ5-HdGRA2z-88">
          <mxGeometry y="51.489999999999995" width="70" height="20" as="geometry" />
        </mxCell>
        <mxCell id="DTyQtxdmuiJ5-HdGRA2z-89" value="" style="rounded=1;arcSize=10;dashed=0;fillColor=none;gradientColor=none;strokeWidth=2;strokeColor=#3399FF;container=0;" vertex="1" parent="DTyQtxdmuiJ5-HdGRA2z-34">
          <mxGeometry x="175.64" y="350" width="234.36" height="250" as="geometry" />
        </mxCell>
        <mxCell id="DTyQtxdmuiJ5-HdGRA2z-90" value="" style="dashed=0;html=1;shape=mxgraph.aws3.permissions;fillColor=#D9A741;gradientColor=none;dashed=0;strokeColor=#3399FF;container=0;" vertex="1" parent="DTyQtxdmuiJ5-HdGRA2z-34">
          <mxGeometry x="199.27181818181828" y="336.00266331658304" width="35.45454545454545" height="39.39698492462311" as="geometry" />
        </mxCell>
        <mxCell id="DTyQtxdmuiJ5-HdGRA2z-91" value="&lt;font style=&quot;font-size: 8px;&quot; color=&quot;#000000&quot;&gt;private_subnet_cidr_az1&lt;/font&gt;" style="text;html=1;align=left;verticalAlign=middle;whiteSpace=wrap;rounded=0;container=0;" vertex="1" parent="DTyQtxdmuiJ5-HdGRA2z-34">
          <mxGeometry x="195.10636363636365" y="371.399648241206" width="100.15909090909092" height="21.386934673366834" as="geometry" />
        </mxCell>
        <mxCell id="DTyQtxdmuiJ5-HdGRA2z-92" value="&lt;font color=&quot;#000000&quot;&gt;10.0.2.0/24&lt;/font&gt;" style="text;html=1;align=center;verticalAlign=middle;whiteSpace=wrap;rounded=0;container=0;" vertex="1" parent="DTyQtxdmuiJ5-HdGRA2z-34">
          <mxGeometry x="194.10727272727274" y="379.20658291457283" width="70.9090909090909" height="33.768844221105525" as="geometry" />
        </mxCell>
        <mxCell id="DTyQtxdmuiJ5-HdGRA2z-97" value="" style="rounded=1;arcSize=10;dashed=0;fillColor=none;gradientColor=none;strokeWidth=2;strokeColor=#3399FF;container=0;" vertex="1" parent="DTyQtxdmuiJ5-HdGRA2z-34">
          <mxGeometry x="618" y="352.32" width="242" height="247.68" as="geometry" />
        </mxCell>
        <mxCell id="DTyQtxdmuiJ5-HdGRA2z-98" value="" style="dashed=0;html=1;shape=mxgraph.aws3.permissions;fillColor=#D9A741;gradientColor=none;dashed=0;strokeColor=#3399FF;container=0;" vertex="1" parent="DTyQtxdmuiJ5-HdGRA2z-34">
          <mxGeometry x="641.6390909090909" y="329.80703517587926" width="35.45454545454545" height="39.39698492462311" as="geometry" />
        </mxCell>
        <mxCell id="DTyQtxdmuiJ5-HdGRA2z-99" value="&lt;font style=&quot;font-size: 8px;&quot; color=&quot;#000000&quot;&gt;private_subnet_cidr_az2&lt;/font&gt;" style="text;html=1;align=left;verticalAlign=middle;whiteSpace=wrap;rounded=0;container=0;" vertex="1" parent="DTyQtxdmuiJ5-HdGRA2z-34">
          <mxGeometry x="639.2654545454545" y="369.2027638190955" width="100.45454545454545" height="21.386934673366834" as="geometry" />
        </mxCell>
        <mxCell id="DTyQtxdmuiJ5-HdGRA2z-100" value="&lt;font color=&quot;#000000&quot;&gt;10.0.4.0/24&lt;/font&gt;" style="text;html=1;align=center;verticalAlign=middle;whiteSpace=wrap;rounded=0;container=0;" vertex="1" parent="DTyQtxdmuiJ5-HdGRA2z-34">
          <mxGeometry x="639.2690909090909" y="379.2096984924623" width="70.9090909090909" height="33.768844221105525" as="geometry" />
        </mxCell>
        <mxCell id="DTyQtxdmuiJ5-HdGRA2z-126" style="edgeStyle=orthogonalEdgeStyle;rounded=0;orthogonalLoop=1;jettySize=auto;html=1;strokeColor=#000000;startArrow=classic;startFill=1;" edge="1" parent="DTyQtxdmuiJ5-HdGRA2z-34" source="DTyQtxdmuiJ5-HdGRA2z-101">
          <mxGeometry relative="1" as="geometry">
            <mxPoint x="550" y="223.53499999999985" as="targetPoint" />
          </mxGeometry>
        </mxCell>
        <mxCell id="DTyQtxdmuiJ5-HdGRA2z-101" value="`" style="rounded=1;arcSize=10;dashed=0;fillColor=none;gradientColor=none;strokeWidth=2;strokeColor=#3399FF;container=0;" vertex="1" parent="DTyQtxdmuiJ5-HdGRA2z-34">
          <mxGeometry x="618.29" y="178.51" width="241.71" height="90.05" as="geometry" />
        </mxCell>
        <mxCell id="DTyQtxdmuiJ5-HdGRA2z-102" value="" style="dashed=0;html=1;shape=mxgraph.aws3.permissions;fillColor=#D9A741;gradientColor=none;dashed=0;strokeColor=#3399FF;container=0;" vertex="1" parent="DTyQtxdmuiJ5-HdGRA2z-34">
          <mxGeometry x="641.9300000000001" y="156.00211055276384" width="35.45454545454545" height="39.39698492462311" as="geometry" />
        </mxCell>
        <mxCell id="DTyQtxdmuiJ5-HdGRA2z-103" value="&lt;font style=&quot;font-size: 8px;&quot; color=&quot;#000000&quot;&gt;public_subnet_cidr_az2&lt;/font&gt;" style="text;html=1;align=left;verticalAlign=middle;whiteSpace=wrap;rounded=0;container=0;" vertex="1" parent="DTyQtxdmuiJ5-HdGRA2z-34">
          <mxGeometry x="635.4281818181818" y="195.39909547738694" width="100.45454545454545" height="21.386934673366834" as="geometry" />
        </mxCell>
        <mxCell id="DTyQtxdmuiJ5-HdGRA2z-104" value="&lt;font color=&quot;#000000&quot;&gt;10.0.3.0/24&lt;/font&gt;" style="text;html=1;align=center;verticalAlign=middle;whiteSpace=wrap;rounded=0;container=0;" vertex="1" parent="DTyQtxdmuiJ5-HdGRA2z-34">
          <mxGeometry x="635.4309090909092" y="206.65291457286435" width="70.9090909090909" height="33.768844221105525" as="geometry" />
        </mxCell>
        <mxCell id="DTyQtxdmuiJ5-HdGRA2z-118" style="edgeStyle=orthogonalEdgeStyle;rounded=0;orthogonalLoop=1;jettySize=auto;html=1;strokeColor=#FF3333;startArrow=classic;startFill=1;fillColor=#a20025;" edge="1" parent="DTyQtxdmuiJ5-HdGRA2z-34" source="DTyQtxdmuiJ5-HdGRA2z-67" target="DTyQtxdmuiJ5-HdGRA2z-75">
          <mxGeometry relative="1" as="geometry">
            <Array as="points">
              <mxPoint x="509" y="336" />
              <mxPoint x="320" y="336" />
              <mxPoint x="320" y="146" />
            </Array>
          </mxGeometry>
        </mxCell>
        <mxCell id="DTyQtxdmuiJ5-HdGRA2z-119" style="edgeStyle=orthogonalEdgeStyle;rounded=0;orthogonalLoop=1;jettySize=auto;html=1;startArrow=classic;startFill=1;strokeColor=#000000;" edge="1" parent="DTyQtxdmuiJ5-HdGRA2z-34" source="DTyQtxdmuiJ5-HdGRA2z-67" target="DTyQtxdmuiJ5-HdGRA2z-97">
          <mxGeometry relative="1" as="geometry">
            <Array as="points">
              <mxPoint x="570" y="396" />
              <mxPoint x="570" y="476" />
            </Array>
          </mxGeometry>
        </mxCell>
        <mxCell id="DTyQtxdmuiJ5-HdGRA2z-67" value="" style="sketch=0;outlineConnect=0;fontColor=#232F3E;gradientColor=none;fillColor=#8C4FFF;strokeColor=none;dashed=0;verticalLabelPosition=bottom;verticalAlign=top;align=center;html=1;fontSize=12;fontStyle=0;aspect=fixed;pointerEvents=1;shape=mxgraph.aws4.route_table;" vertex="1" parent="DTyQtxdmuiJ5-HdGRA2z-34">
          <mxGeometry x="470" y="358.09000000000003" width="78" height="76" as="geometry" />
        </mxCell>
        <mxCell id="DTyQtxdmuiJ5-HdGRA2z-106" value="&lt;font color=&quot;#000000&quot;&gt;Private Route Table&lt;/font&gt;" style="text;html=1;align=center;verticalAlign=middle;resizable=0;points=[];autosize=1;strokeColor=none;fillColor=none;" vertex="1" parent="DTyQtxdmuiJ5-HdGRA2z-34">
          <mxGeometry x="445" y="434.26" width="130" height="30" as="geometry" />
        </mxCell>
        <mxCell id="DTyQtxdmuiJ5-HdGRA2z-113" value="" style="rounded=0;whiteSpace=wrap;html=1;fillColor=#d80073;fontColor=#ffffff;strokeColor=#A50040;opacity=20;" vertex="1" parent="DTyQtxdmuiJ5-HdGRA2z-34">
          <mxGeometry x="42" y="462.26" width="808" height="127.74" as="geometry" />
        </mxCell>
        <mxCell id="DTyQtxdmuiJ5-HdGRA2z-114" value="" style="sketch=0;points=[[0,0,0],[0.25,0,0],[0.5,0,0],[0.75,0,0],[1,0,0],[0,1,0],[0.25,1,0],[0.5,1,0],[0.75,1,0],[1,1,0],[0,0.25,0],[0,0.5,0],[0,0.75,0],[1,0.25,0],[1,0.5,0],[1,0.75,0]];outlineConnect=0;fontColor=#232F3E;fillColor=#ED7100;strokeColor=#ffffff;dashed=0;verticalLabelPosition=bottom;verticalAlign=top;align=center;html=1;fontSize=12;fontStyle=0;aspect=fixed;shape=mxgraph.aws4.resourceIcon;resIcon=mxgraph.aws4.eks;" vertex="1" parent="DTyQtxdmuiJ5-HdGRA2z-34">
          <mxGeometry x="29" y="450" width="54" height="54" as="geometry" />
        </mxCell>
        <mxCell id="DTyQtxdmuiJ5-HdGRA2z-115" value="EKS Cluster (general)&amp;nbsp;&lt;div&gt;(eks-dev-eks-cluster)&lt;/div&gt;" style="text;html=1;align=left;verticalAlign=middle;whiteSpace=wrap;rounded=0;fontColor=#006633;" vertex="1" parent="DTyQtxdmuiJ5-HdGRA2z-34">
          <mxGeometry x="41.5" y="504" width="125.5" height="36" as="geometry" />
        </mxCell>
        <mxCell id="DTyQtxdmuiJ5-HdGRA2z-117" style="edgeStyle=orthogonalEdgeStyle;rounded=0;orthogonalLoop=1;jettySize=auto;html=1;fontColor=#000000;strokeColor=#000000;startArrow=classic;startFill=1;exitX=1;exitY=0.5;exitDx=0;exitDy=0;entryX=0.01;entryY=0.486;entryDx=0;entryDy=0;entryPerimeter=0;" edge="1" parent="DTyQtxdmuiJ5-HdGRA2z-34" source="DTyQtxdmuiJ5-HdGRA2z-89" target="DTyQtxdmuiJ5-HdGRA2z-67">
          <mxGeometry relative="1" as="geometry">
            <mxPoint x="628" y="486" as="sourcePoint" />
            <mxPoint x="558" y="396" as="targetPoint" />
          </mxGeometry>
        </mxCell>
        <mxCell id="DTyQtxdmuiJ5-HdGRA2z-127" value="EC2 instance contents" style="points=[[0,0],[0.25,0],[0.5,0],[0.75,0],[1,0],[1,0.25],[1,0.5],[1,0.75],[1,1],[0.75,1],[0.5,1],[0.25,1],[0,1],[0,0.75],[0,0.5],[0,0.25]];outlineConnect=0;gradientColor=none;html=1;whiteSpace=wrap;fontSize=12;fontStyle=0;container=1;pointerEvents=0;collapsible=0;recursiveResize=0;shape=mxgraph.aws4.group;grIcon=mxgraph.aws4.group_ec2_instance_contents;strokeColor=#000099;fillColor=none;verticalAlign=top;align=left;spacingLeft=30;fontColor=#0000CC;" vertex="1" parent="DTyQtxdmuiJ5-HdGRA2z-34">
          <mxGeometry x="190" y="476" width="200" height="100" as="geometry" />
        </mxCell>
        <mxCell id="DTyQtxdmuiJ5-HdGRA2z-129" value="" style="aspect=fixed;sketch=0;html=1;dashed=0;whitespace=wrap;verticalLabelPosition=bottom;verticalAlign=top;fillColor=#2875E2;strokeColor=#ffffff;points=[[0.005,0.63,0],[0.1,0.2,0],[0.9,0.2,0],[0.5,0,0],[0.995,0.63,0],[0.72,0.99,0],[0.5,1,0],[0.28,0.99,0]];shape=mxgraph.kubernetes.icon2;kubernetesLabel=1;prIcon=node" vertex="1" parent="DTyQtxdmuiJ5-HdGRA2z-127">
          <mxGeometry x="78" y="30" width="50" height="48" as="geometry" />
        </mxCell>
        <mxCell id="DTyQtxdmuiJ5-HdGRA2z-128" value="EC2 instance contents&lt;br&gt;(high-availability)" style="points=[[0,0],[0.25,0],[0.5,0],[0.75,0],[1,0],[1,0.25],[1,0.5],[1,0.75],[1,1],[0.75,1],[0.5,1],[0.25,1],[0,1],[0,0.75],[0,0.5],[0,0.25]];outlineConnect=0;gradientColor=none;html=1;whiteSpace=wrap;fontSize=12;fontStyle=0;container=1;pointerEvents=0;collapsible=0;recursiveResize=0;shape=mxgraph.aws4.group;grIcon=mxgraph.aws4.group_ec2_instance_contents;strokeColor=#66B2FF;fillColor=none;verticalAlign=top;align=left;spacingLeft=30;fontColor=#0000CC;" vertex="1" parent="DTyQtxdmuiJ5-HdGRA2z-34">
          <mxGeometry x="635.4300000000001" y="476.1300000000001" width="200" height="100" as="geometry" />
        </mxCell>
        <mxCell id="DTyQtxdmuiJ5-HdGRA2z-107" value="" style="outlineConnect=0;dashed=0;verticalLabelPosition=bottom;verticalAlign=top;align=center;html=1;shape=mxgraph.aws3.flow_logs;fillColor=#F58536;gradientColor=none;" vertex="1" parent="DTyQtxdmuiJ5-HdGRA2z-33">
          <mxGeometry x="70.5" y="190" width="69" height="72" as="geometry" />
        </mxCell>
        <mxCell id="DTyQtxdmuiJ5-HdGRA2z-108" value="eks-dev-flow-logs-group" style="text;html=1;align=center;verticalAlign=middle;resizable=0;points=[];autosize=1;strokeColor=none;fillColor=none;" vertex="1" parent="DTyQtxdmuiJ5-HdGRA2z-33">
          <mxGeometry x="30" y="262" width="150" height="30" as="geometry" />
        </mxCell>
        <mxCell id="DTyQtxdmuiJ5-HdGRA2z-110" style="edgeStyle=orthogonalEdgeStyle;rounded=0;orthogonalLoop=1;jettySize=auto;html=1;entryX=1;entryY=0.5;entryDx=0;entryDy=0;entryPerimeter=0;" edge="1" parent="DTyQtxdmuiJ5-HdGRA2z-33" source="DTyQtxdmuiJ5-HdGRA2z-34" target="DTyQtxdmuiJ5-HdGRA2z-107">
          <mxGeometry relative="1" as="geometry" />
        </mxCell>
        <mxCell id="DTyQtxdmuiJ5-HdGRA2z-87" style="edgeStyle=orthogonalEdgeStyle;rounded=0;orthogonalLoop=1;jettySize=auto;html=1;exitX=0.5;exitY=0;exitDx=0;exitDy=0;exitPerimeter=0;" edge="1" parent="1" source="DTyQtxdmuiJ5-HdGRA2z-69" target="DTyQtxdmuiJ5-HdGRA2z-72">
          <mxGeometry relative="1" as="geometry" />
        </mxCell>
        <mxCell id="DTyQtxdmuiJ5-HdGRA2z-105" value="&lt;font color=&quot;#000000&quot;&gt;Public Route Table&lt;/font&gt;" style="text;html=1;align=center;verticalAlign=middle;resizable=0;points=[];autosize=1;strokeColor=none;fillColor=none;" vertex="1" parent="1">
          <mxGeometry x="760" y="384" width="120" height="30" as="geometry" />
        </mxCell>
        <mxCell id="DTyQtxdmuiJ5-HdGRA2z-111" value="" style="group" vertex="1" connectable="0" parent="1">
          <mxGeometry x="1417" y="390" width="80" height="85" as="geometry" />
        </mxCell>
        <mxCell id="DTyQtxdmuiJ5-HdGRA2z-72" value="" style="image;aspect=fixed;perimeter=ellipsePerimeter;html=1;align=center;shadow=0;dashed=0;spacingTop=3;image=img/lib/active_directory/internet_globe.svg;" vertex="1" parent="DTyQtxdmuiJ5-HdGRA2z-111">
          <mxGeometry x="13" width="50" height="50" as="geometry" />
        </mxCell>
        <mxCell id="DTyQtxdmuiJ5-HdGRA2z-73" value="INTERNET" style="text;html=1;align=center;verticalAlign=middle;resizable=0;points=[];autosize=1;strokeColor=none;fillColor=none;" vertex="1" parent="DTyQtxdmuiJ5-HdGRA2z-111">
          <mxGeometry y="55" width="80" height="30" as="geometry" />
        </mxCell>
      </root>
    </mxGraphModel>
  </diagram>
</mxfile>
